<?xml version="1.0" standalone="no"?>
<!DOCTYPE svg PUBLIC "-//W3C//DTD SVG 20010904//EN"
 "http://www.w3.org/TR/2001/REC-SVG-20010904/DTD/svg10.dtd">
<svg version="1.0" xmlns="http://www.w3.org/2000/svg"
 width="321.000000pt" height="331.000000pt" viewBox="0 0 321.000000 331.000000"
 preserveAspectRatio="xMidYMid meet">

<g transform="translate(0.000000,331.000000) scale(0.100000,-0.100000)"
fill="#000000" stroke="none">
<path d="M1486 2870 c-54 -32 -103 -63 -108 -68 -11 -11 198 -166 226 -168 25
-2 239 157 228 168 -20 20 -216 128 -231 127 -9 0 -60 -27 -115 -59z"/>
<path d="M1192 2697 c-38 -21 -52 -35 -52 -50 0 -35 46 -286 53 -294 4 -3 15
1 24 9 10 8 82 68 161 133 79 65 140 121 135 125 -4 4 -67 30 -139 57 l-130
50 -52 -30z"/>
<path d="M1835 2678 c-71 -27 -134 -53 -138 -57 -5 -5 56 -61 135 -126 79 -65
151 -125 161 -134 13 -11 20 -12 26 -3 14 23 55 302 46 311 -6 4 -30 20 -55
33 l-45 25 -130 -49z"/>
<path d="M615 2362 c-23 -15 -58 -36 -78 -46 -26 -14 -34 -22 -25 -28 20 -12
31 -9 24 8 -3 9 -2 12 5 9 6 -4 8 -13 6 -19 -3 -7 4 -18 14 -24 15 -10 24 -9
43 3 19 13 26 14 32 3 4 -7 4 -10 -1 -6 -10 9 -47 -10 -41 -21 11 -18 -40 -5
-56 14 -10 11 -17 15 -18 9 0 -6 7 -17 15 -24 17 -14 21 -35 4 -24 -6 3 -17
20 -25 38 -12 29 -13 25 -14 -61 0 -74 3 -93 14 -93 8 0 21 6 28 13 7 8 20 11
28 9 11 -4 9 2 -5 18 -11 13 -14 20 -7 16 6 -4 12 -3 12 1 0 14 79 32 87 20 3
-5 1 -7 -4 -4 -6 4 -14 0 -17 -9 -10 -25 -4 -25 33 -3 26 15 32 25 29 47 -2
15 -7 26 -11 24 -12 -4 -40 28 -32 36 4 4 10 1 12 -5 3 -7 9 -13 15 -13 9 0 7
34 -8 113 -7 33 -9 33 -59 -1z m52 -33 l1 -34 -8 35 c-4 19 -8 28 -9 19 0 -9
-9 -23 -18 -30 -15 -11 -16 -11 -5 1 6 8 12 22 12 33 0 34 25 12 27 -24z m-61
-4 c-8 -8 -20 -15 -27 -15 -7 0 -4 6 7 15 25 19 40 19 20 0z m-6 -39 c0 -2 -7
-9 -15 -16 -13 -11 -14 -10 -9 4 5 14 24 23 24 12z m64 -56 c7 -5 16 -7 19 -3
4 3 7 1 7 -5 0 -16 -6 -15 -34 4 -20 12 -26 13 -32 2 -4 -7 -4 -10 1 -6 9 8
65 -22 65 -34 0 -11 -14 -10 -26 2 -17 17 -52 20 -58 4 -6 -16 -48 -13 -54 4
-2 7 1 12 8 12 6 0 8 5 4 11 -4 7 1 7 16 -1 18 -10 24 -9 31 1 4 7 6 16 3 20
-6 11 36 2 50 -11z m-124 -40 c0 -5 -8 -10 -17 -10 -15 0 -16 2 -3 10 19 12
20 12 20 0z m-8 -52 c-7 -7 -12 -8 -12 -2 0 14 12 26 19 19 2 -3 -1 -11 -7
-17z"/>
<path d="M575 2200 c3 -5 11 -10 16 -10 6 0 7 5 4 10 -3 6 -11 10 -16 10 -6 0
-7 -4 -4 -10z"/>
<path d="M2540 2382 c0 -4 6 -14 13 -21 10 -10 8 -11 -7 -5 -16 6 -18 3 -14
-29 2 -20 1 -38 -4 -39 -4 -2 -8 -28 -10 -58 l-3 -55 47 -22 c26 -13 55 -24
65 -26 10 -2 28 -8 40 -15 34 -19 43 -14 43 23 0 19 -5 35 -10 35 -6 0 -8 -12
-5 -27 3 -19 0 -15 -10 11 -8 21 -13 42 -10 46 3 4 -2 11 -11 14 -24 9 -28 7
-15 -8 11 -13 6 -21 -26 -40 -9 -5 -11 -2 -7 8 3 9 1 16 -5 16 -6 0 -11 -4
-11 -9 0 -13 -39 -21 -46 -9 -4 6 0 14 7 19 8 5 17 3 21 -4 7 -11 12 -3 9 16
0 4 4 7 11 7 6 0 9 3 6 6 -4 3 -20 -2 -37 -10 -29 -15 -31 -15 -42 6 -9 19 -9
21 1 11 8 -7 19 -9 29 -4 16 9 23 11 41 11 6 0 10 5 10 11 0 7 -7 8 -17 4 -39
-15 -47 -15 -20 0 15 8 27 21 28 28 0 7 3 4 7 -5 6 -15 10 -15 42 -1 32 14 33
16 15 24 -15 7 -11 7 15 4 28 -5 31 -4 18 5 -10 6 -21 10 -24 10 -4 -1 -10 2
-13 7 -6 9 -108 73 -116 73 -3 0 -5 -4 -5 -8z m43 -42 c-3 -12 -8 -19 -11 -16
-5 6 5 36 12 36 2 0 2 -9 -1 -20z m1 -65 c-3 -5 -16 -15 -30 -22 -22 -10 -25
-9 -22 5 2 9 10 17 18 17 9 0 14 8 12 19 -3 15 -1 16 11 5 8 -8 13 -18 11 -24z
m53 19 c-3 -3 -12 -4 -19 -1 -8 3 -5 6 6 6 11 1 17 -2 13 -5z m-97 -114 c0 -5
-2 -10 -4 -10 -3 0 -8 5 -11 10 -3 6 -1 10 4 10 6 0 11 -4 11 -10z m135 -50
c3 -5 1 -10 -4 -10 -6 0 -11 5 -11 10 0 6 2 10 4 10 3 0 8 -4 11 -10z"/>
<path d="M2664 2255 c-15 -13 -32 -23 -37 -22 -5 1 -11 -6 -12 -15 -4 -20 20
-44 29 -29 4 5 2 13 -4 16 -8 5 -8 11 1 21 9 11 14 11 27 -3 10 -9 17 -21 17
-26 0 -6 5 -12 11 -14 14 -5 14 30 0 39 -8 5 -7 8 2 8 14 0 17 36 3 44 -4 3
-21 -5 -37 -19z m26 -10 c-7 -9 -15 -13 -17 -11 -6 6 20 36 26 30 2 -2 -2 -10
-9 -19z"/>
<path d="M1345 2234 c-93 -14 -184 -27 -202 -30 l-32 -5 44 -57 c25 -31 72
-91 105 -132 33 -41 60 -80 60 -86 0 -6 -16 -18 -36 -28 -20 -9 -35 -18 -33
-20 12 -11 322 -186 329 -186 4 0 9 86 9 190 1 105 -1 190 -4 190 -3 0 -22
-11 -43 -23 -20 -13 -51 -31 -69 -40 l-32 -17 16 38 c8 20 23 55 33 77 46 104
60 138 60 146 0 11 -3 11 -205 -17z"/>
<path d="M1660 2251 c0 -8 14 -42 60 -146 10 -22 25 -57 34 -78 l15 -38 -74
41 -73 41 -2 -191 c0 -117 3 -190 9 -190 8 0 317 174 330 186 2 2 -13 11 -33
20 -20 10 -36 22 -36 28 0 6 47 70 104 141 65 82 99 133 92 137 -6 4 -24 8
-41 8 -16 0 -106 11 -200 25 -197 29 -185 27 -185 16z"/>
<path d="M590 2155 c-23 -13 -21 -16 10 -19 6 -1 10 3 9 8 0 5 5 13 13 17 22
15 -6 9 -32 -6z"/>
<path d="M1230 1800 c0 -22 -3 -40 -7 -40 -5 0 -79 9 -165 22 -86 12 -160 20
-163 16 -3 -3 1 -23 10 -44 9 -22 45 -109 79 -194 34 -85 66 -155 72 -155 5 0
45 49 89 108 l80 108 3 -81 c2 -45 6 -80 10 -78 47 20 321 185 319 192 -3 10
-304 186 -318 186 -5 0 -9 -18 -9 -40z"/>
<path d="M1805 1750 c-82 -48 -150 -91 -152 -96 -2 -7 275 -174 319 -192 4 -2
8 33 10 78 l3 80 80 -107 c45 -60 85 -108 90 -108 4 0 33 61 62 135 30 74 65
160 79 191 13 31 24 59 24 63 0 11 -62 6 -185 -14 -162 -27 -155 -28 -155 20
0 26 -4 40 -12 39 -7 0 -80 -40 -163 -89z"/>
<path d="M645 1610 l-150 -55 -3 -61 -3 -60 117 -97 c64 -54 119 -95 122 -93
5 6 73 408 70 416 -2 3 -70 -19 -153 -50z"/>
<path d="M2410 1663 c0 -10 60 -378 66 -401 6 -28 -2 -33 143 86 l102 84 -3
61 -3 62 -152 56 c-84 31 -153 54 -153 52z"/>
<path d="M1417 1523 l-168 -96 71 -41 c80 -45 78 -48 -34 -59 -128 -13 -176
-20 -176 -26 0 -3 39 -55 86 -116 47 -60 107 -138 132 -172 55 -74 43 -85 122
117 29 74 55 137 57 140 2 2 22 -6 44 -18 l39 -23 0 196 c0 107 -1 195 -2 195
-2 -1 -78 -44 -171 -97z"/>
<path d="M1620 1426 l0 -197 39 23 c22 12 42 20 44 18 2 -3 28 -66 57 -140 79
-202 67 -191 122 -117 25 34 85 112 132 172 47 61 86 113 86 116 0 6 -48 13
-176 26 -112 11 -114 14 -35 59 l71 41 -128 73 c-70 41 -146 84 -169 98 l-43
24 0 -196z"/>
<path d="M492 1144 l3 -136 110 -64 c61 -35 115 -62 120 -60 15 4 43 275 30
286 -14 11 -244 110 -256 110 -6 0 -8 -56 -7 -136z"/>
<path d="M2580 1229 c-63 -28 -119 -54 -125 -59 -14 -11 15 -282 30 -286 6 -2
60 25 120 60 l110 64 3 136 c2 105 0 136 -10 135 -7 0 -65 -23 -128 -50z"/>
<path d="M810 1088 c0 -22 47 -288 51 -291 2 -2 26 -16 53 -30 l49 -27 121 98
c67 54 120 103 120 108 -2 7 -375 154 -391 154 -2 0 -3 -6 -3 -12z"/>
<path d="M2197 1027 c-104 -40 -189 -77 -190 -82 -1 -9 101 -97 209 -181 l31
-24 49 27 c27 14 51 28 53 30 4 3 51 269 51 291 0 6 -3 12 -7 11 -5 0 -93 -33
-196 -72z"/>
<path d="M1569 581 l-24 -20 23 -21 c12 -11 22 -24 22 -27 0 -4 -10 3 -23 15
-29 27 -39 27 -61 3 -17 -18 -17 -20 1 -30 10 -6 13 -11 8 -11 -6 0 -16 5 -23
12 -9 9 -16 7 -32 -7 -11 -10 -20 -23 -20 -28 0 -6 8 -3 18 6 10 10 23 17 28
17 5 0 1 -5 -8 -11 -10 -5 -18 -13 -18 -17 0 -7 120 -82 131 -82 2 0 5 16 7
37 1 23 -4 43 -15 56 -16 19 -16 20 -1 14 15 -5 16 2 15 54 -1 32 -3 59 -3 59
-1 0 -12 -9 -25 -19z m-14 -61 c3 -6 -1 -7 -9 -4 -18 7 -21 14 -7 14 6 0 13
-4 16 -10z m-42 -46 c-7 -3 -9 -13 -6 -22 6 -14 5 -15 -9 -2 -16 15 -7 31 17
29 6 0 5 -3 -2 -5z m52 -64 c3 -6 -1 -7 -9 -4 -18 7 -21 14 -7 14 6 0 13 -4
16 -10z"/>
<path d="M1611 490 c-1 -60 1 -110 5 -110 13 0 84 44 84 52 0 4 3 7 8 6 11 -2
62 24 62 32 0 10 -90 83 -96 78 -5 -6 32 -50 41 -48 4 1 8 0 11 -2 2 -2 -7 -4
-21 -4 -13 0 -23 2 -23 6 1 3 -2 13 -7 23 -6 15 -10 15 -23 5 -13 -11 -14 -11
-7 1 6 11 4 13 -7 9 -9 -4 -15 0 -15 8 0 17 9 18 26 2 10 -11 12 -9 9 6 -1 10
-12 25 -24 32 -20 14 -21 13 -23 -96z m94 -12 c11 -1 25 1 32 5 6 4 15 3 18
-3 4 -6 3 -10 -2 -9 -16 4 -43 -13 -36 -24 4 -6 1 -7 -7 -2 -7 4 -16 2 -21 -6
-6 -9 -9 -10 -9 -2 0 7 8 17 18 23 14 10 13 11 -10 7 -24 -4 -28 -1 -28 21 0
23 2 24 13 10 6 -9 21 -18 32 -20z m-55 8 c0 -3 -4 -8 -10 -11 -5 -3 -10 -1
-10 4 0 6 5 11 10 11 6 0 10 -2 10 -4z m17 -60 c0 -8 -6 -12 -15 -8 -10 3 -13
1 -8 -6 5 -8 2 -10 -8 -6 -21 8 -20 13 7 24 12 5 22 9 23 9 0 1 1 -5 1 -13z"/>
</g>
</svg>
